<?xml version="1.0" standalone="no"?>
<!DOCTYPE svg PUBLIC "-//W3C//DTD SVG 20010904//EN"
 "http://www.w3.org/TR/2001/REC-SVG-20010904/DTD/svg10.dtd">
<svg version="1.0" xmlns="http://www.w3.org/2000/svg"
 width="900.000000pt" height="366.000000pt" viewBox="0 0 900.000000 366.000000"
 preserveAspectRatio="xMidYMid meet">
<metadata>
Created by potrace 1.10, written by Peter Selinger 2001-2011
</metadata>
<g transform="translate(0.000000,366.000000) scale(0.100000,-0.100000)"
fill="#000000" stroke="none">
<path d="M3089 3581 c18 -25 21 -44 21 -134 0 -102 -1 -106 -26 -124 l-26 -19
26 -17 26 -17 0 -453 0 -454 -25 -23 c-31 -29 -19 -40 44 -40 24 0 67 -7 95
-15 28 -8 78 -22 111 -31 180 -49 385 -139 513 -225 24 -16 45 -29 48 -29 3 0
51 -35 107 -77 90 -68 303 -269 349 -330 9 -12 34 -44 55 -73 l38 -51 25 29
c14 16 52 61 85 101 80 98 236 245 350 331 52 38 97 70 100 70 4 0 21 11 38
24 61 45 238 133 382 188 79 31 274 81 339 87 34 3 61 11 64 19 2 6 -3 12 -12
12 -8 0 -22 10 -30 22 -14 20 -16 80 -16 461 0 438 3 477 35 477 26 0 25 19
-2 32 -28 13 -28 14 -31 119 -3 102 -2 108 24 138 l26 31 -401 0 -402 0 21
-28 c18 -25 20 -40 18 -137 -3 -103 -4 -111 -25 -120 -13 -5 -23 -14 -23 -20
0 -6 10 -15 23 -20 l22 -10 3 -413 2 -412 -25 -10 c-26 -10 -165 -12 -197 -3
-17 4 -18 33 -18 424 0 364 2 420 15 425 21 8 19 27 -5 42 -18 11 -20 23 -20
120 0 94 3 111 20 130 11 12 20 24 20 27 0 3 -182 5 -405 5 l-405 0 20 -32
c16 -27 20 -51 20 -131 0 -92 -2 -99 -25 -122 -26 -23 -26 -23 -6 -37 20 -14
21 -24 21 -427 1 -226 -2 -416 -5 -421 -6 -10 -184 -13 -217 -3 -17 4 -18 33
-18 418 l0 413 28 20 27 21 -27 10 -28 11 0 113 c0 110 1 115 26 141 l27 26
-407 0 -407 0 20 -29z"/>
<path d="M35 1180 c-3 -5 -1 -17 4 -27 15 -28 71 -152 71 -158 0 -3 13 -33 29
-68 16 -34 41 -89 56 -122 60 -136 71 -159 124 -278 17 -37 31 -71 31 -77 0
-17 42 -21 215 -18 l170 3 95 192 c53 105 105 211 115 235 11 24 27 44 35 46
10 2 39 -48 95 -164 44 -92 96 -199 115 -238 l36 -71 186 -3 186 -2 20 42 c41
87 82 178 82 183 0 3 20 48 45 101 25 52 45 97 45 100 0 2 14 34 31 71 17 38
42 93 56 123 14 30 33 72 42 92 10 21 16 40 13 43 -3 3 -74 5 -158 5 -150 0
-153 0 -159 -22 -4 -13 -12 -36 -20 -53 -7 -16 -21 -50 -30 -75 -10 -25 -23
-58 -30 -75 -7 -16 -21 -50 -30 -75 -10 -25 -23 -58 -30 -75 -7 -16 -21 -50
-30 -75 -25 -66 -30 -75 -49 -78 -10 -2 -20 6 -26 22 -12 32 -119 261 -208
446 l-27 55 -152 3 -153 3 -51 -108 c-28 -60 -81 -169 -117 -243 -35 -74 -68
-146 -71 -160 -4 -14 -14 -25 -21 -25 -17 0 -41 47 -84 163 -30 80 -49 127
-61 157 -7 17 -21 50 -30 75 -9 25 -23 59 -30 75 -7 17 -16 38 -19 48 -5 15
-21 17 -155 17 -85 0 -152 -4 -156 -10z"/>
<path d="M2743 1168 c-11 -13 -30 -39 -43 -58 -13 -19 -27 -37 -30 -40 -3 -3
-19 -23 -35 -45 -75 -104 -113 -155 -264 -358 -89 -120 -159 -222 -156 -227 4
-6 76 -10 170 -10 183 0 178 -2 228 80 11 19 26 38 31 42 14 10 648 10 661 0
6 -4 26 -27 44 -52 55 -72 49 -70 223 -70 127 0 160 3 164 14 3 8 -16 42 -43
76 -26 34 -64 83 -83 109 -19 26 -57 77 -85 113 -27 36 -115 151 -195 256
l-145 192 -211 0 c-206 0 -211 -1 -231 -22z m292 -239 c28 -39 67 -93 88 -120
61 -79 60 -80 -148 -80 -151 -1 -180 1 -183 14 -4 18 166 257 182 257 6 0 34
-32 61 -71z"/>
<path d="M3900 1182 c0 -5 28 -32 63 -60 34 -28 77 -65 95 -81 18 -16 116
-100 218 -187 l184 -157 0 -121 c0 -82 4 -126 12 -134 8 -8 58 -12 159 -12
125 0 148 2 153 16 3 9 6 69 6 134 l0 118 88 73 c48 41 89 77 92 80 3 3 88 76
190 163 102 87 187 162 188 167 2 5 -76 9 -183 9 l-186 0 -61 -51 c-34 -28
-67 -56 -73 -62 -17 -17 -145 -130 -181 -161 -18 -14 -35 -26 -39 -26 -9 0
-48 31 -130 104 -38 35 -104 93 -145 129 l-75 67 -187 0 c-104 0 -188 -4 -188
-8z"/>
<path d="M5785 1177 c-3 -6 -4 -176 -3 -377 l3 -365 135 -3 c74 -1 145 0 157
3 23 5 23 6 25 263 3 229 5 257 19 257 9 0 55 -36 101 -80 47 -44 105 -98 129
-120 24 -21 96 -87 159 -145 63 -58 134 -122 158 -143 l42 -37 248 2 247 3 0
375 0 375 -157 3 -158 3 0 -265 c0 -153 -4 -267 -9 -271 -8 -4 -57 34 -130
105 -9 8 -48 44 -86 79 -39 35 -92 85 -120 111 -27 25 -98 90 -157 143 l-106
97 -246 0 c-189 0 -248 -3 -251 -13z"/>
<path d="M7725 1178 c-3 -7 -4 -177 -3 -378 l3 -365 569 -3 c412 -1 573 1 582
9 14 12 20 122 8 153 -5 14 -51 16 -406 16 -256 0 -406 4 -419 10 -14 8 -19
21 -19 53 0 24 5 48 12 55 9 9 81 12 263 12 l250 0 18 49 c9 27 17 60 17 75
l0 26 -277 2 -278 3 0 55 0 55 410 5 c226 3 411 7 413 8 2 1 2 39 0 85 l-3 82
-568 3 c-450 2 -569 0 -572 -10z"/>
<path d="M312 147 c-27 -29 -28 -47 -1 -81 l20 -26 4294 0 4294 0 20 26 c27
34 26 55 -2 82 l-23 22 -4290 0 -4291 0 -21 -23z"/>
</g>
</svg>
